<?xml version="1.0" encoding="utf-8" standalone="no"?>
<!DOCTYPE svg PUBLIC "-//W3C//DTD SVG 1.1//EN"
  "http://www.w3.org/Graphics/SVG/1.1/DTD/svg11.dtd">
<!-- Created with matplotlib (https://matplotlib.org/) -->
<svg height="288pt" version="1.1" viewBox="0 0 432 288" width="432pt" xmlns="http://www.w3.org/2000/svg" xmlns:xlink="http://www.w3.org/1999/xlink">
 <metadata>
  <rdf:RDF xmlns:cc="http://creativecommons.org/ns#" xmlns:dc="http://purl.org/dc/elements/1.1/" xmlns:rdf="http://www.w3.org/1999/02/22-rdf-syntax-ns#">
   <cc:Work>
    <dc:type rdf:resource="http://purl.org/dc/dcmitype/StillImage"/>
    <dc:date>2022-03-06T15:58:15.477417</dc:date>
    <dc:format>image/svg+xml</dc:format>
    <dc:creator>
     <cc:Agent>
      <dc:title>Matplotlib v3.3.2, https://matplotlib.org/</dc:title>
     </cc:Agent>
    </dc:creator>
   </cc:Work>
  </rdf:RDF>
 </metadata>
 <defs>
  <style type="text/css">*{stroke-linecap:butt;stroke-linejoin:round;}</style>
 </defs>
 <g id="figure_1">
  <g id="patch_1">
   <path d="M 0 288 
L 432 288 
L 432 0 
L 0 0 
z
" style="fill:none;"/>
  </g>
  <g id="axes_1">
   <g id="patch_2">
    <path d="M 70.425 236.2 
L 421.2 236.2 
L 421.2 10.8 
L 70.425 10.8 
z
" style="fill:#ffffff;"/>
   </g>
   <g id="matplotlib.axis_1">
    <g id="xtick_1">
     <g id="line2d_1">
      <defs>
       <path d="M 0 0 
L 0 3.5 
" id="m7e856f8fd4" style="stroke:#000000;stroke-width:0.8;"/>
      </defs>
      <g>
       <use style="stroke:#000000;stroke-width:0.8;" x="86.369318" xlink:href="#m7e856f8fd4" y="236.2"/>
      </g>
     </g>
     <g id="text_1">
      <!-- 0 -->
      <g transform="translate(81.279318 255.3575)scale(0.16 -0.16)">
       <defs>
        <path d="M 31.78125 66.40625 
Q 24.171875 66.40625 20.328125 58.90625 
Q 16.5 51.421875 16.5 36.375 
Q 16.5 21.390625 20.328125 13.890625 
Q 24.171875 6.390625 31.78125 6.390625 
Q 39.453125 6.390625 43.28125 13.890625 
Q 47.125 21.390625 47.125 36.375 
Q 47.125 51.421875 43.28125 58.90625 
Q 39.453125 66.40625 31.78125 66.40625 
z
M 31.78125 74.21875 
Q 44.046875 74.21875 50.515625 64.515625 
Q 56.984375 54.828125 56.984375 36.375 
Q 56.984375 17.96875 50.515625 8.265625 
Q 44.046875 -1.421875 31.78125 -1.421875 
Q 19.53125 -1.421875 13.0625 8.265625 
Q 6.59375 17.96875 6.59375 36.375 
Q 6.59375 54.828125 13.0625 64.515625 
Q 19.53125 74.21875 31.78125 74.21875 
z
" id="DejaVuSans-48"/>
       </defs>
       <use xlink:href="#DejaVuSans-48"/>
      </g>
     </g>
    </g>
    <g id="xtick_2">
     <g id="line2d_2">
      <g>
       <use style="stroke:#000000;stroke-width:0.8;" x="166.090909" xlink:href="#m7e856f8fd4" y="236.2"/>
      </g>
     </g>
     <g id="text_2">
      <!-- 1 -->
      <g transform="translate(161.000909 255.3575)scale(0.16 -0.16)">
       <defs>
        <path d="M 12.40625 8.296875 
L 28.515625 8.296875 
L 28.515625 63.921875 
L 10.984375 60.40625 
L 10.984375 69.390625 
L 28.421875 72.90625 
L 38.28125 72.90625 
L 38.28125 8.296875 
L 54.390625 8.296875 
L 54.390625 0 
L 12.40625 0 
z
" id="DejaVuSans-49"/>
       </defs>
       <use xlink:href="#DejaVuSans-49"/>
      </g>
     </g>
    </g>
    <g id="xtick_3">
     <g id="line2d_3">
      <g>
       <use style="stroke:#000000;stroke-width:0.8;" x="245.8125" xlink:href="#m7e856f8fd4" y="236.2"/>
      </g>
     </g>
     <g id="text_3">
      <!-- 2 -->
      <g transform="translate(240.7225 255.3575)scale(0.16 -0.16)">
       <defs>
        <path d="M 19.1875 8.296875 
L 53.609375 8.296875 
L 53.609375 0 
L 7.328125 0 
L 7.328125 8.296875 
Q 12.9375 14.109375 22.625 23.890625 
Q 32.328125 33.6875 34.8125 36.53125 
Q 39.546875 41.84375 41.421875 45.53125 
Q 43.3125 49.21875 43.3125 52.78125 
Q 43.3125 58.59375 39.234375 62.25 
Q 35.15625 65.921875 28.609375 65.921875 
Q 23.96875 65.921875 18.8125 64.3125 
Q 13.671875 62.703125 7.8125 59.421875 
L 7.8125 69.390625 
Q 13.765625 71.78125 18.9375 73 
Q 24.125 74.21875 28.421875 74.21875 
Q 39.75 74.21875 46.484375 68.546875 
Q 53.21875 62.890625 53.21875 53.421875 
Q 53.21875 48.921875 51.53125 44.890625 
Q 49.859375 40.875 45.40625 35.40625 
Q 44.1875 33.984375 37.640625 27.21875 
Q 31.109375 20.453125 19.1875 8.296875 
z
" id="DejaVuSans-50"/>
       </defs>
       <use xlink:href="#DejaVuSans-50"/>
      </g>
     </g>
    </g>
    <g id="xtick_4">
     <g id="line2d_4">
      <g>
       <use style="stroke:#000000;stroke-width:0.8;" x="325.534091" xlink:href="#m7e856f8fd4" y="236.2"/>
      </g>
     </g>
     <g id="text_4">
      <!-- 3 -->
      <g transform="translate(320.444091 255.3575)scale(0.16 -0.16)">
       <defs>
        <path d="M 40.578125 39.3125 
Q 47.65625 37.796875 51.625 33 
Q 55.609375 28.21875 55.609375 21.1875 
Q 55.609375 10.40625 48.1875 4.484375 
Q 40.765625 -1.421875 27.09375 -1.421875 
Q 22.515625 -1.421875 17.65625 -0.515625 
Q 12.796875 0.390625 7.625 2.203125 
L 7.625 11.71875 
Q 11.71875 9.328125 16.59375 8.109375 
Q 21.484375 6.890625 26.8125 6.890625 
Q 36.078125 6.890625 40.9375 10.546875 
Q 45.796875 14.203125 45.796875 21.1875 
Q 45.796875 27.640625 41.28125 31.265625 
Q 36.765625 34.90625 28.71875 34.90625 
L 20.21875 34.90625 
L 20.21875 43.015625 
L 29.109375 43.015625 
Q 36.375 43.015625 40.234375 45.921875 
Q 44.09375 48.828125 44.09375 54.296875 
Q 44.09375 59.90625 40.109375 62.90625 
Q 36.140625 65.921875 28.71875 65.921875 
Q 24.65625 65.921875 20.015625 65.03125 
Q 15.375 64.15625 9.8125 62.3125 
L 9.8125 71.09375 
Q 15.4375 72.65625 20.34375 73.4375 
Q 25.25 74.21875 29.59375 74.21875 
Q 40.828125 74.21875 47.359375 69.109375 
Q 53.90625 64.015625 53.90625 55.328125 
Q 53.90625 49.265625 50.4375 45.09375 
Q 46.96875 40.921875 40.578125 39.3125 
z
" id="DejaVuSans-51"/>
       </defs>
       <use xlink:href="#DejaVuSans-51"/>
      </g>
     </g>
    </g>
    <g id="xtick_5">
     <g id="line2d_5">
      <g>
       <use style="stroke:#000000;stroke-width:0.8;" x="405.255682" xlink:href="#m7e856f8fd4" y="236.2"/>
      </g>
     </g>
     <g id="text_5">
      <!-- 4 -->
      <g transform="translate(400.165682 255.3575)scale(0.16 -0.16)">
       <defs>
        <path d="M 37.796875 64.3125 
L 12.890625 25.390625 
L 37.796875 25.390625 
z
M 35.203125 72.90625 
L 47.609375 72.90625 
L 47.609375 25.390625 
L 58.015625 25.390625 
L 58.015625 17.1875 
L 47.609375 17.1875 
L 47.609375 0 
L 37.796875 0 
L 37.796875 17.1875 
L 4.890625 17.1875 
L 4.890625 26.703125 
z
" id="DejaVuSans-52"/>
       </defs>
       <use xlink:href="#DejaVuSans-52"/>
      </g>
     </g>
    </g>
    <g id="text_6">
     <!-- Time (s) -->
     <g transform="translate(213.28625 274.8425)scale(0.16 -0.16)">
      <defs>
       <path d="M -0.296875 72.90625 
L 61.375 72.90625 
L 61.375 64.59375 
L 35.5 64.59375 
L 35.5 0 
L 25.59375 0 
L 25.59375 64.59375 
L -0.296875 64.59375 
z
" id="DejaVuSans-84"/>
       <path d="M 9.421875 54.6875 
L 18.40625 54.6875 
L 18.40625 0 
L 9.421875 0 
z
M 9.421875 75.984375 
L 18.40625 75.984375 
L 18.40625 64.59375 
L 9.421875 64.59375 
z
" id="DejaVuSans-105"/>
       <path d="M 52 44.1875 
Q 55.375 50.25 60.0625 53.125 
Q 64.75 56 71.09375 56 
Q 79.640625 56 84.28125 50.015625 
Q 88.921875 44.046875 88.921875 33.015625 
L 88.921875 0 
L 79.890625 0 
L 79.890625 32.71875 
Q 79.890625 40.578125 77.09375 44.375 
Q 74.3125 48.1875 68.609375 48.1875 
Q 61.625 48.1875 57.5625 43.546875 
Q 53.515625 38.921875 53.515625 30.90625 
L 53.515625 0 
L 44.484375 0 
L 44.484375 32.71875 
Q 44.484375 40.625 41.703125 44.40625 
Q 38.921875 48.1875 33.109375 48.1875 
Q 26.21875 48.1875 22.15625 43.53125 
Q 18.109375 38.875 18.109375 30.90625 
L 18.109375 0 
L 9.078125 0 
L 9.078125 54.6875 
L 18.109375 54.6875 
L 18.109375 46.1875 
Q 21.1875 51.21875 25.484375 53.609375 
Q 29.78125 56 35.6875 56 
Q 41.65625 56 45.828125 52.96875 
Q 50 49.953125 52 44.1875 
z
" id="DejaVuSans-109"/>
       <path d="M 56.203125 29.59375 
L 56.203125 25.203125 
L 14.890625 25.203125 
Q 15.484375 15.921875 20.484375 11.0625 
Q 25.484375 6.203125 34.421875 6.203125 
Q 39.59375 6.203125 44.453125 7.46875 
Q 49.3125 8.734375 54.109375 11.28125 
L 54.109375 2.78125 
Q 49.265625 0.734375 44.1875 -0.34375 
Q 39.109375 -1.421875 33.890625 -1.421875 
Q 20.796875 -1.421875 13.15625 6.1875 
Q 5.515625 13.8125 5.515625 26.8125 
Q 5.515625 40.234375 12.765625 48.109375 
Q 20.015625 56 32.328125 56 
Q 43.359375 56 49.78125 48.890625 
Q 56.203125 41.796875 56.203125 29.59375 
z
M 47.21875 32.234375 
Q 47.125 39.59375 43.09375 43.984375 
Q 39.0625 48.390625 32.421875 48.390625 
Q 24.90625 48.390625 20.390625 44.140625 
Q 15.875 39.890625 15.1875 32.171875 
z
" id="DejaVuSans-101"/>
       <path id="DejaVuSans-32"/>
       <path d="M 31 75.875 
Q 24.46875 64.65625 21.28125 53.65625 
Q 18.109375 42.671875 18.109375 31.390625 
Q 18.109375 20.125 21.3125 9.0625 
Q 24.515625 -2 31 -13.1875 
L 23.1875 -13.1875 
Q 15.875 -1.703125 12.234375 9.375 
Q 8.59375 20.453125 8.59375 31.390625 
Q 8.59375 42.28125 12.203125 53.3125 
Q 15.828125 64.359375 23.1875 75.875 
z
" id="DejaVuSans-40"/>
       <path d="M 44.28125 53.078125 
L 44.28125 44.578125 
Q 40.484375 46.53125 36.375 47.5 
Q 32.28125 48.484375 27.875 48.484375 
Q 21.1875 48.484375 17.84375 46.4375 
Q 14.5 44.390625 14.5 40.28125 
Q 14.5 37.15625 16.890625 35.375 
Q 19.28125 33.59375 26.515625 31.984375 
L 29.59375 31.296875 
Q 39.15625 29.25 43.1875 25.515625 
Q 47.21875 21.78125 47.21875 15.09375 
Q 47.21875 7.46875 41.1875 3.015625 
Q 35.15625 -1.421875 24.609375 -1.421875 
Q 20.21875 -1.421875 15.453125 -0.5625 
Q 10.6875 0.296875 5.421875 2 
L 5.421875 11.28125 
Q 10.40625 8.6875 15.234375 7.390625 
Q 20.0625 6.109375 24.8125 6.109375 
Q 31.15625 6.109375 34.5625 8.28125 
Q 37.984375 10.453125 37.984375 14.40625 
Q 37.984375 18.0625 35.515625 20.015625 
Q 33.0625 21.96875 24.703125 23.78125 
L 21.578125 24.515625 
Q 13.234375 26.265625 9.515625 29.90625 
Q 5.8125 33.546875 5.8125 39.890625 
Q 5.8125 47.609375 11.28125 51.796875 
Q 16.75 56 26.8125 56 
Q 31.78125 56 36.171875 55.265625 
Q 40.578125 54.546875 44.28125 53.078125 
z
" id="DejaVuSans-115"/>
       <path d="M 8.015625 75.875 
L 15.828125 75.875 
Q 23.140625 64.359375 26.78125 53.3125 
Q 30.421875 42.28125 30.421875 31.390625 
Q 30.421875 20.453125 26.78125 9.375 
Q 23.140625 -1.703125 15.828125 -13.1875 
L 8.015625 -13.1875 
Q 14.5 -2 17.703125 9.0625 
Q 20.90625 20.125 20.90625 31.390625 
Q 20.90625 42.671875 17.703125 53.65625 
Q 14.5 64.65625 8.015625 75.875 
z
" id="DejaVuSans-41"/>
      </defs>
      <use xlink:href="#DejaVuSans-84"/>
      <use x="57.958984" xlink:href="#DejaVuSans-105"/>
      <use x="85.742188" xlink:href="#DejaVuSans-109"/>
      <use x="183.154297" xlink:href="#DejaVuSans-101"/>
      <use x="244.677734" xlink:href="#DejaVuSans-32"/>
      <use x="276.464844" xlink:href="#DejaVuSans-40"/>
      <use x="315.478516" xlink:href="#DejaVuSans-115"/>
      <use x="367.578125" xlink:href="#DejaVuSans-41"/>
     </g>
    </g>
   </g>
   <g id="matplotlib.axis_2">
    <g id="ytick_1">
     <g id="line2d_6">
      <defs>
       <path d="M 0 0 
L -3.5 0 
" id="m03087a62e9" style="stroke:#000000;stroke-width:0.8;"/>
      </defs>
      <g>
       <use style="stroke:#000000;stroke-width:0.8;" x="70.425" xlink:href="#m03087a62e9" y="221.208581"/>
      </g>
     </g>
     <g id="text_7">
      <!-- −40 -->
      <g transform="translate(29.6575 227.287331)scale(0.16 -0.16)">
       <defs>
        <path d="M 10.59375 35.5 
L 73.1875 35.5 
L 73.1875 27.203125 
L 10.59375 27.203125 
z
" id="DejaVuSans-8722"/>
       </defs>
       <use xlink:href="#DejaVuSans-8722"/>
       <use x="83.789062" xlink:href="#DejaVuSans-52"/>
       <use x="147.412109" xlink:href="#DejaVuSans-48"/>
      </g>
     </g>
    </g>
    <g id="ytick_2">
     <g id="line2d_7">
      <g>
       <use style="stroke:#000000;stroke-width:0.8;" x="70.425" xlink:href="#m03087a62e9" y="174.109444"/>
      </g>
     </g>
     <g id="text_8">
      <!-- −20 -->
      <g transform="translate(29.6575 180.188194)scale(0.16 -0.16)">
       <use xlink:href="#DejaVuSans-8722"/>
       <use x="83.789062" xlink:href="#DejaVuSans-50"/>
       <use x="147.412109" xlink:href="#DejaVuSans-48"/>
      </g>
     </g>
    </g>
    <g id="ytick_3">
     <g id="line2d_8">
      <g>
       <use style="stroke:#000000;stroke-width:0.8;" x="70.425" xlink:href="#m03087a62e9" y="127.010307"/>
      </g>
     </g>
     <g id="text_9">
      <!-- 0 -->
      <g transform="translate(53.245 133.089057)scale(0.16 -0.16)">
       <use xlink:href="#DejaVuSans-48"/>
      </g>
     </g>
    </g>
    <g id="ytick_4">
     <g id="line2d_9">
      <g>
       <use style="stroke:#000000;stroke-width:0.8;" x="70.425" xlink:href="#m03087a62e9" y="79.91117"/>
      </g>
     </g>
     <g id="text_10">
      <!-- 20 -->
      <g transform="translate(43.065 85.98992)scale(0.16 -0.16)">
       <use xlink:href="#DejaVuSans-50"/>
       <use x="63.623047" xlink:href="#DejaVuSans-48"/>
      </g>
     </g>
    </g>
    <g id="ytick_5">
     <g id="line2d_10">
      <g>
       <use style="stroke:#000000;stroke-width:0.8;" x="70.425" xlink:href="#m03087a62e9" y="32.812033"/>
      </g>
     </g>
     <g id="text_11">
      <!-- 40 -->
      <g transform="translate(43.065 38.890783)scale(0.16 -0.16)">
       <use xlink:href="#DejaVuSans-52"/>
       <use x="63.623047" xlink:href="#DejaVuSans-48"/>
      </g>
     </g>
    </g>
    <g id="text_12">
     <!-- Voltage (uV) -->
     <g transform="translate(22.33 172.8375)rotate(-90)scale(0.16 -0.16)">
      <defs>
       <path d="M 28.609375 0 
L 0.78125 72.90625 
L 11.078125 72.90625 
L 34.1875 11.53125 
L 57.328125 72.90625 
L 67.578125 72.90625 
L 39.796875 0 
z
" id="DejaVuSans-86"/>
       <path d="M 30.609375 48.390625 
Q 23.390625 48.390625 19.1875 42.75 
Q 14.984375 37.109375 14.984375 27.296875 
Q 14.984375 17.484375 19.15625 11.84375 
Q 23.34375 6.203125 30.609375 6.203125 
Q 37.796875 6.203125 41.984375 11.859375 
Q 46.1875 17.53125 46.1875 27.296875 
Q 46.1875 37.015625 41.984375 42.703125 
Q 37.796875 48.390625 30.609375 48.390625 
z
M 30.609375 56 
Q 42.328125 56 49.015625 48.375 
Q 55.71875 40.765625 55.71875 27.296875 
Q 55.71875 13.875 49.015625 6.21875 
Q 42.328125 -1.421875 30.609375 -1.421875 
Q 18.84375 -1.421875 12.171875 6.21875 
Q 5.515625 13.875 5.515625 27.296875 
Q 5.515625 40.765625 12.171875 48.375 
Q 18.84375 56 30.609375 56 
z
" id="DejaVuSans-111"/>
       <path d="M 9.421875 75.984375 
L 18.40625 75.984375 
L 18.40625 0 
L 9.421875 0 
z
" id="DejaVuSans-108"/>
       <path d="M 18.3125 70.21875 
L 18.3125 54.6875 
L 36.8125 54.6875 
L 36.8125 47.703125 
L 18.3125 47.703125 
L 18.3125 18.015625 
Q 18.3125 11.328125 20.140625 9.421875 
Q 21.96875 7.515625 27.59375 7.515625 
L 36.8125 7.515625 
L 36.8125 0 
L 27.59375 0 
Q 17.1875 0 13.234375 3.875 
Q 9.28125 7.765625 9.28125 18.015625 
L 9.28125 47.703125 
L 2.6875 47.703125 
L 2.6875 54.6875 
L 9.28125 54.6875 
L 9.28125 70.21875 
z
" id="DejaVuSans-116"/>
       <path d="M 34.28125 27.484375 
Q 23.390625 27.484375 19.1875 25 
Q 14.984375 22.515625 14.984375 16.5 
Q 14.984375 11.71875 18.140625 8.90625 
Q 21.296875 6.109375 26.703125 6.109375 
Q 34.1875 6.109375 38.703125 11.40625 
Q 43.21875 16.703125 43.21875 25.484375 
L 43.21875 27.484375 
z
M 52.203125 31.203125 
L 52.203125 0 
L 43.21875 0 
L 43.21875 8.296875 
Q 40.140625 3.328125 35.546875 0.953125 
Q 30.953125 -1.421875 24.3125 -1.421875 
Q 15.921875 -1.421875 10.953125 3.296875 
Q 6 8.015625 6 15.921875 
Q 6 25.140625 12.171875 29.828125 
Q 18.359375 34.515625 30.609375 34.515625 
L 43.21875 34.515625 
L 43.21875 35.40625 
Q 43.21875 41.609375 39.140625 45 
Q 35.0625 48.390625 27.6875 48.390625 
Q 23 48.390625 18.546875 47.265625 
Q 14.109375 46.140625 10.015625 43.890625 
L 10.015625 52.203125 
Q 14.9375 54.109375 19.578125 55.046875 
Q 24.21875 56 28.609375 56 
Q 40.484375 56 46.34375 49.84375 
Q 52.203125 43.703125 52.203125 31.203125 
z
" id="DejaVuSans-97"/>
       <path d="M 45.40625 27.984375 
Q 45.40625 37.75 41.375 43.109375 
Q 37.359375 48.484375 30.078125 48.484375 
Q 22.859375 48.484375 18.828125 43.109375 
Q 14.796875 37.75 14.796875 27.984375 
Q 14.796875 18.265625 18.828125 12.890625 
Q 22.859375 7.515625 30.078125 7.515625 
Q 37.359375 7.515625 41.375 12.890625 
Q 45.40625 18.265625 45.40625 27.984375 
z
M 54.390625 6.78125 
Q 54.390625 -7.171875 48.1875 -13.984375 
Q 42 -20.796875 29.203125 -20.796875 
Q 24.46875 -20.796875 20.265625 -20.09375 
Q 16.0625 -19.390625 12.109375 -17.921875 
L 12.109375 -9.1875 
Q 16.0625 -11.328125 19.921875 -12.34375 
Q 23.78125 -13.375 27.78125 -13.375 
Q 36.625 -13.375 41.015625 -8.765625 
Q 45.40625 -4.15625 45.40625 5.171875 
L 45.40625 9.625 
Q 42.625 4.78125 38.28125 2.390625 
Q 33.9375 0 27.875 0 
Q 17.828125 0 11.671875 7.65625 
Q 5.515625 15.328125 5.515625 27.984375 
Q 5.515625 40.671875 11.671875 48.328125 
Q 17.828125 56 27.875 56 
Q 33.9375 56 38.28125 53.609375 
Q 42.625 51.21875 45.40625 46.390625 
L 45.40625 54.6875 
L 54.390625 54.6875 
z
" id="DejaVuSans-103"/>
       <path d="M 8.5 21.578125 
L 8.5 54.6875 
L 17.484375 54.6875 
L 17.484375 21.921875 
Q 17.484375 14.15625 20.5 10.265625 
Q 23.53125 6.390625 29.59375 6.390625 
Q 36.859375 6.390625 41.078125 11.03125 
Q 45.3125 15.671875 45.3125 23.6875 
L 45.3125 54.6875 
L 54.296875 54.6875 
L 54.296875 0 
L 45.3125 0 
L 45.3125 8.40625 
Q 42.046875 3.421875 37.71875 1 
Q 33.40625 -1.421875 27.6875 -1.421875 
Q 18.265625 -1.421875 13.375 4.4375 
Q 8.5 10.296875 8.5 21.578125 
z
M 31.109375 56 
z
" id="DejaVuSans-117"/>
      </defs>
      <use xlink:href="#DejaVuSans-86"/>
      <use x="60.658203" xlink:href="#DejaVuSans-111"/>
      <use x="121.839844" xlink:href="#DejaVuSans-108"/>
      <use x="149.623047" xlink:href="#DejaVuSans-116"/>
      <use x="188.832031" xlink:href="#DejaVuSans-97"/>
      <use x="250.111328" xlink:href="#DejaVuSans-103"/>
      <use x="313.587891" xlink:href="#DejaVuSans-101"/>
      <use x="375.111328" xlink:href="#DejaVuSans-32"/>
      <use x="406.898438" xlink:href="#DejaVuSans-40"/>
      <use x="445.912109" xlink:href="#DejaVuSans-117"/>
      <use x="509.291016" xlink:href="#DejaVuSans-86"/>
      <use x="577.699219" xlink:href="#DejaVuSans-41"/>
     </g>
    </g>
   </g>
   <g id="line2d_11">
    <path clip-path="url(#p78a408a0b3)" d="M 86.369318 113.107693 
L 86.836437 133.563874 
L 86.992143 136.045291 
L 87.303556 134.354771 
L 87.459262 133.480769 
L 87.770674 121.914689 
L 88.082087 133.957234 
L 88.704912 155.784912 
L 88.860618 154.288833 
L 89.327737 127.872684 
L 89.483443 129.588478 
L 89.639149 129.123816 
L 89.950562 114.636698 
L 90.106268 105.485834 
L 90.261974 109.248386 
L 90.729093 134.883634 
L 90.884799 139.819763 
L 91.040505 139.914108 
L 91.507624 111.066436 
L 91.66333 112.224897 
L 91.974743 117.889866 
L 92.130449 116.009885 
L 92.441861 108.993892 
L 92.597567 107.743387 
L 92.753274 107.651239 
L 94.15463 160.125471 
L 94.466042 147.435063 
L 94.621748 140.295304 
L 94.777455 138.720326 
L 94.933161 140.326756 
L 95.088867 140.756368 
L 95.555986 134.231859 
L 96.178811 148.852285 
L 96.801636 131.343496 
L 96.957342 130.576506 
L 97.424461 114.720957 
L 97.580167 115.588709 
L 97.735873 122.611786 
L 97.891579 123.599543 
L 98.047286 117.860668 
L 98.358698 95.544636 
L 98.825817 85.476777 
L 98.981523 84.799923 
L 99.137229 86.690226 
L 99.292935 92.995356 
L 99.448642 94.770387 
L 99.760054 85.708316 
L 99.91576 86.032197 
L 100.071467 88.10353 
L 100.382879 96.54145 
L 100.694292 90.940818 
L 100.849998 92.487446 
L 101.472823 116.376529 
L 101.628529 119.007051 
L 101.784235 119.436162 
L 101.939941 118.454849 
L 102.095648 118.624075 
L 102.40706 132.908062 
L 102.874179 129.038848 
L 103.341297 143.646941 
L 103.65271 138.776462 
L 103.808416 138.34258 
L 103.964122 137.435241 
L 104.275535 129.861809 
L 104.431241 131.248048 
L 104.742654 137.256791 
L 104.89836 137.150768 
L 105.054066 135.460889 
L 105.676891 116.344694 
L 105.988303 119.820173 
L 106.14401 112.791242 
L 106.455422 90.214302 
L 106.766835 99.473447 
L 106.922541 97.502384 
L 107.233953 78.102765 
L 107.545366 65.827925 
L 107.701072 67.14739 
L 107.856778 72.032845 
L 108.012484 71.596109 
L 108.323897 60.799704 
L 108.479603 59.610298 
L 108.791016 65.331667 
L 109.258134 94.97534 
L 109.569547 100.665404 
L 109.725253 96.195459 
L 109.880959 98.980251 
L 110.348078 138.166994 
L 110.503784 141.184489 
L 110.815197 134.684419 
L 111.282315 143.010339 
L 111.90514 158.296524 
L 112.060847 159.162646 
L 112.527965 144.43129 
L 112.683671 144.633676 
L 112.995084 155.333944 
L 113.15079 153.29553 
L 113.462203 140.001905 
L 113.617909 139.198571 
L 113.929321 146.076299 
L 114.240734 154.938973 
L 114.552146 151.555919 
L 114.863559 143.690545 
L 115.019265 144.646738 
L 115.174971 142.785722 
L 115.797796 124.441731 
L 116.264915 105.367842 
L 117.043446 75.707685 
L 117.354858 61.913712 
L 117.510565 61.385809 
L 117.977683 39.845233 
L 118.13339 39.960357 
L 118.289096 40.487821 
L 118.444802 40.168508 
L 118.600508 36.795191 
L 118.756214 38.615444 
L 119.534746 68.932009 
L 119.846158 82.811018 
L 120.001864 83.601864 
L 120.157571 85.430688 
L 120.468983 108.874633 
L 120.780396 133.941433 
L 120.936102 136.838152 
L 121.40322 128.105213 
L 121.558927 124.579377 
L 121.714633 129.116568 
L 122.026045 144.534078 
L 122.181752 147.372553 
L 122.337458 147.645097 
L 123.115989 137.803675 
L 123.427401 140.897852 
L 123.583108 145.042567 
L 123.738814 145.884148 
L 124.050226 134.685794 
L 124.361639 129.211064 
L 124.828758 102.264743 
L 124.984464 105.100041 
L 125.14017 105.628514 
L 125.607289 97.9147 
L 125.918701 102.624922 
L 126.074407 99.740945 
L 126.230114 100.734083 
L 126.38582 103.13747 
L 126.541526 102.870522 
L 126.697232 102.210312 
L 127.008645 108.483527 
L 127.320057 119.743968 
L 127.63147 134.073816 
L 127.787176 135.169 
L 127.942882 133.127162 
L 128.098588 132.669383 
L 128.410001 141.053488 
L 128.721413 150.09351 
L 128.87712 149.237849 
L 129.188532 143.839479 
L 129.344238 142.355744 
L 129.655651 133.968883 
L 129.811357 133.884499 
L 129.967063 131.88948 
L 130.122769 131.867235 
L 130.278476 132.599757 
L 130.434182 131.563442 
L 130.589888 128.224827 
L 130.745594 122.20055 
L 130.901301 121.652844 
L 131.057007 123.286626 
L 131.212713 121.605548 
L 131.524126 115.548693 
L 131.679832 118.334165 
L 132.14695 143.167886 
L 132.302657 142.349048 
L 132.769775 128.726229 
L 133.236894 156.233125 
L 133.3926 156.139885 
L 133.548307 154.919169 
L 133.859719 146.347457 
L 134.015425 147.610446 
L 134.171131 147.881975 
L 134.326838 146.393031 
L 134.482544 142.428841 
L 134.793956 130.545819 
L 134.949663 128.258202 
L 135.261075 120.877167 
L 135.572488 116.930738 
L 135.728194 120.635687 
L 135.8839 119.440869 
L 136.039606 113.828942 
L 136.195312 112.982673 
L 136.351019 113.163927 
L 136.506725 111.852174 
L 136.662431 111.711223 
L 136.818137 109.686022 
L 137.12955 99.238626 
L 137.285256 100.136441 
L 137.596669 115.649569 
L 137.908081 116.883866 
L 138.063787 115.393867 
L 138.219494 115.366358 
L 138.530906 119.891809 
L 138.686612 119.207659 
L 138.842318 121.220605 
L 139.153731 134.867778 
L 139.309437 143.292746 
L 139.465143 143.680628 
L 139.62085 138.853069 
L 139.776556 140.456679 
L 140.399381 167.944851 
L 140.710793 163.478853 
L 141.333618 172.849802 
L 141.489324 173.0444 
L 141.800737 185.562533 
L 142.112149 184.919871 
L 142.579268 202.218154 
L 143.046387 223.03326 
L 143.202093 223.020806 
L 143.357799 224.828996 
L 143.513505 224.789813 
L 143.669212 225.954545 
L 143.824918 225.418645 
L 144.292037 214.689014 
L 144.447743 214.67153 
L 144.603449 214.168315 
L 144.759155 214.276852 
L 145.070568 214.066529 
L 145.226274 215.476169 
L 145.537686 215.711372 
L 145.849099 206.021377 
L 146.004805 206.328908 
L 146.160511 207.672635 
L 146.783336 194.286858 
L 146.939043 194.601038 
L 147.250455 203.114162 
L 147.561867 207.211585 
L 147.717574 206.495579 
L 148.028986 195.391647 
L 148.184692 192.392001 
L 148.496105 185.121688 
L 148.651811 184.391091 
L 148.963224 177.564539 
L 149.586048 160.497254 
L 149.897461 161.829247 
L 150.053167 157.869267 
L 150.520286 134.518355 
L 150.675992 131.241025 
L 150.831698 132.455667 
L 151.143111 126.839775 
L 151.298817 130.573915 
L 152.233054 175.299024 
L 152.388761 180.656054 
L 152.700173 168.718134 
L 152.855879 170.388809 
L 153.322998 182.033467 
L 153.634411 188.508102 
L 153.790117 191.013704 
L 153.945823 188.24754 
L 154.257235 175.409264 
L 154.412942 176.098441 
L 154.568648 177.739744 
L 155.035767 169.326284 
L 155.814298 141.953839 
L 156.12571 150.817118 
L 156.281416 151.819946 
L 156.437123 151.660223 
L 156.748535 146.882677 
L 156.904241 149.678715 
L 157.37136 175.633628 
L 157.527066 179.721168 
L 157.994185 164.463491 
L 158.305597 166.657326 
L 158.61701 160.07159 
L 158.928422 146.987234 
L 159.084129 146.273374 
L 159.239835 144.623497 
L 159.551247 149.468895 
L 160.329778 116.558114 
L 160.485485 114.117131 
L 160.641191 114.435388 
L 160.952603 122.034112 
L 161.419722 109.360726 
L 161.575428 111.849237 
L 161.886841 120.173199 
L 162.35396 109.566191 
L 162.509666 106.339439 
L 162.665372 105.422752 
L 162.976784 115.010162 
L 163.288197 122.690754 
L 163.443903 126.454728 
L 164.066728 160.137722 
L 164.378141 163.791676 
L 164.533847 159.620845 
L 164.689553 151.454952 
L 164.845259 153.252886 
L 165.156672 161.067046 
L 165.312378 159.983182 
L 165.468084 160.964733 
L 165.62379 164.578885 
L 166.090909 151.012649 
L 166.402322 141.711731 
L 166.713734 131.357043 
L 166.86944 127.939411 
L 167.025146 127.867444 
L 167.180853 129.443037 
L 167.803678 139.648934 
L 167.959384 141.109783 
L 168.11509 141.306942 
L 168.426503 144.787672 
L 168.582209 144.837461 
L 168.737915 140.797499 
L 168.893621 140.297723 
L 169.205034 152.830474 
L 169.36074 152.266046 
L 169.516446 148.478231 
L 169.827859 132.906468 
L 170.60639 175.668685 
L 170.917802 183.161802 
L 171.073509 181.294453 
L 171.229215 175.89029 
L 171.696333 185.85624 
L 171.85204 186.243392 
L 172.007746 183.148132 
L 172.319158 187.01207 
L 172.474865 183.965486 
L 172.786277 169.537242 
L 173.564808 153.367965 
L 173.720514 154.833685 
L 173.876221 154.5989 
L 174.187633 147.667829 
L 174.966164 167.35413 
L 175.121871 175.624135 
L 175.277577 174.206695 
L 175.433283 165.539737 
L 175.588989 163.074357 
L 175.900402 170.080353 
L 176.36752 156.989613 
L 176.523227 159.507863 
L 176.678933 154.997755 
L 176.834639 146.846415 
L 176.990345 147.294404 
L 177.146052 146.596938 
L 177.301758 147.696687 
L 177.61317 156.383141 
L 177.768877 157.614394 
L 178.391701 166.119225 
L 178.547408 167.203449 
L 178.703114 164.903418 
L 178.85882 159.298941 
L 179.014526 164.219323 
L 179.170233 176.029101 
L 179.325939 177.984155 
L 179.481645 177.784962 
L 179.948764 190.501408 
L 180.10447 190.64357 
L 180.571589 180.284768 
L 180.727295 180.179367 
L 181.194414 188.221516 
L 181.35012 188.794346 
L 181.505826 185.923408 
L 181.817239 162.224363 
L 181.972945 163.716537 
L 182.284357 179.772338 
L 182.440063 178.945143 
L 182.907182 162.518615 
L 183.062888 163.433813 
L 183.530007 159.310812 
L 183.84142 149.549189 
L 183.997126 143.15729 
L 184.152832 145.41686 
L 184.308538 149.403348 
L 184.464244 148.676284 
L 184.619951 149.648239 
L 184.775657 149.579805 
L 184.931363 154.0505 
L 185.242776 167.313432 
L 185.398482 167.745237 
L 185.709894 161.441245 
L 186.177013 167.236227 
L 186.332719 166.208832 
L 186.488426 164.102459 
L 186.644132 164.81389 
L 186.799838 168.587442 
L 186.955544 165.479256 
L 187.11125 159.501742 
L 187.266957 158.844851 
L 187.422663 154.162221 
L 187.889782 129.294805 
L 188.045488 129.805744 
L 188.512607 140.549889 
L 188.824019 150.034209 
L 189.135431 156.539844 
L 189.60255 145.302476 
L 189.758256 145.966266 
L 190.069669 138.185144 
L 190.381081 149.74758 
L 190.536788 150.777724 
L 190.692494 143.382337 
L 191.003906 121.073797 
L 191.159612 119.675507 
L 191.471025 125.181185 
L 191.626731 124.547578 
L 191.782437 125.555743 
L 191.938144 133.549943 
L 192.249556 155.984859 
L 192.405262 152.943974 
L 192.716675 140.89615 
L 193.028087 144.593712 
L 193.3395 132.677892 
L 193.650912 123.478042 
L 193.962325 124.881751 
L 194.273737 110.506788 
L 194.896562 123.879729 
L 195.986506 108.697674 
L 196.297918 96.546402 
L 196.453624 95.397468 
L 196.609331 95.808454 
L 196.920743 99.670039 
L 197.232156 93.873485 
L 197.387862 94.425129 
L 197.543568 88.058188 
L 197.699274 87.725068 
L 197.85498 91.970811 
L 198.166393 86.609049 
L 198.322099 87.505221 
L 198.477805 85.409325 
L 198.633512 87.942376 
L 198.789218 92.677489 
L 198.944924 93.325265 
L 199.723455 105.30697 
L 200.034868 108.961252 
L 200.34628 117.230664 
L 200.501986 113.511356 
L 200.813399 100.378551 
L 200.969105 100.815601 
L 201.280518 103.702482 
L 201.903343 116.183096 
L 202.059049 114.128159 
L 202.214755 116.837057 
L 202.526167 126.147309 
L 202.993286 135.77421 
L 203.148992 136.251907 
L 203.304699 133.640625 
L 203.460405 133.584107 
L 203.771817 139.663974 
L 203.927524 138.156423 
L 204.08323 143.488925 
L 204.238936 144.476878 
L 204.550348 138.521456 
L 204.861761 121.228778 
L 205.017467 121.115685 
L 205.173173 119.263489 
L 205.484586 109.3797 
L 205.640292 108.505171 
L 205.795998 109.331912 
L 205.951705 107.800289 
L 206.107411 101.75123 
L 206.418823 105.788097 
L 206.574529 102.313446 
L 206.730236 101.646401 
L 207.041648 95.317898 
L 207.353061 93.341491 
L 208.443004 123.717946 
L 208.59871 124.602816 
L 208.754417 121.565901 
L 208.910123 121.490177 
L 209.065829 127.019695 
L 209.377242 146.972589 
L 209.84436 158.175492 
L 210.000067 158.571277 
L 210.311479 149.817239 
L 210.467185 151.283704 
L 210.622892 150.851432 
L 210.778598 144.595884 
L 211.09001 119.142314 
L 211.245716 117.316969 
L 211.557129 125.231163 
L 211.712835 124.644209 
L 212.33566 97.714393 
L 212.491366 98.594658 
L 212.647073 97.437262 
L 212.958485 92.515492 
L 213.269897 80.154506 
L 213.425604 79.775294 
L 213.892722 115.580901 
L 214.048429 115.429617 
L 214.359841 98.33137 
L 214.515547 100.980687 
L 214.82696 116.638322 
L 215.605491 148.273524 
L 215.916903 154.893474 
L 216.07261 156.002 
L 216.228316 152.528776 
L 216.851141 120.192256 
L 217.006847 114.484287 
L 217.162553 114.445359 
L 217.473966 121.837272 
L 217.629672 120.841705 
L 217.785378 118.362877 
L 218.252497 93.432719 
L 218.563909 73.595243 
L 218.875322 85.014973 
L 219.031028 91.89482 
L 219.186734 91.393716 
L 219.498147 69.819748 
L 219.653853 69.537641 
L 219.809559 76.513263 
L 220.276678 109.73063 
L 220.58809 122.420273 
L 221.055209 118.378702 
L 221.366622 122.304023 
L 221.522328 120.338951 
L 221.678034 119.827873 
L 221.83374 124.568622 
L 222.145153 139.35915 
L 222.456565 143.36597 
L 222.767978 137.132641 
L 222.923684 138.141632 
L 223.235096 146.422786 
L 223.390803 145.748193 
L 223.857921 129.590804 
L 224.013627 132.160842 
L 224.169334 132.571694 
L 224.480746 129.191513 
L 224.947865 142.820042 
L 225.103571 141.652212 
L 225.726396 125.983296 
L 226.037809 119.971989 
L 226.193515 121.742692 
L 226.349221 125.700408 
L 226.504927 126.304604 
L 226.660633 120.672068 
L 226.972046 96.032536 
L 227.594871 123.424275 
L 227.906283 113.057741 
L 228.06199 113.732878 
L 228.373402 124.417972 
L 228.529108 128.068453 
L 228.684814 134.854558 
L 228.840521 134.905968 
L 228.996227 131.858551 
L 229.307639 135.426866 
L 229.463346 137.280406 
L 229.619052 140.812031 
L 229.774758 140.009829 
L 229.930464 140.409134 
L 230.086171 142.091429 
L 230.397583 134.402629 
L 230.708995 138.824896 
L 230.864702 141.99135 
L 231.020408 141.136744 
L 231.176114 138.493402 
L 231.33182 133.275078 
L 231.643233 119.332515 
L 231.954645 120.303725 
L 232.110352 122.311699 
L 232.421764 133.39956 
L 232.57747 140.791966 
L 232.733176 138.909107 
L 232.888883 130.908586 
L 233.044589 130.364808 
L 233.200295 132.732064 
L 233.356001 132.753763 
L 233.511708 129.636629 
L 233.667414 124.062349 
L 233.82312 124.764453 
L 234.290239 132.597021 
L 234.601651 116.697358 
L 234.757358 119.106054 
L 235.224476 132.64316 
L 235.380182 134.908438 
L 235.691595 130.744546 
L 236.003007 141.329667 
L 236.158714 141.272117 
L 236.470126 136.079515 
L 236.937245 152.425175 
L 237.248657 153.86001 
L 237.56007 157.878934 
L 237.715776 154.587521 
L 238.182895 138.074787 
L 238.494307 132.7785 
L 238.650013 135.116299 
L 238.80572 140.069211 
L 239.117132 131.41066 
L 239.272838 132.861657 
L 239.428544 130.88316 
L 239.895663 115.755968 
L 240.207076 125.325813 
L 240.362782 122.220441 
L 240.518488 116.368209 
L 240.674194 115.016304 
L 241.452725 139.515324 
L 241.764138 133.106864 
L 242.231257 149.355269 
L 242.386963 151.091273 
L 242.698375 138.289813 
L 243.009788 123.846603 
L 243.3212 132.226463 
L 243.632613 145.316165 
L 243.788319 148.131869 
L 243.944025 148.759862 
L 244.255438 142.557185 
L 244.411144 143.315932 
L 244.56685 148.225253 
L 244.722556 147.46161 
L 245.033969 135.936553 
L 245.189675 137.41077 
L 245.345381 136.665465 
L 245.501088 133.296953 
L 245.656794 133.926982 
L 246.123912 121.904644 
L 246.279619 119.088649 
L 246.435325 120.624159 
L 246.591031 120.721492 
L 246.746737 120.630479 
L 246.902444 123.852874 
L 247.525269 145.854939 
L 247.836681 135.160257 
L 248.148093 110.851548 
L 248.3038 108.627608 
L 248.770918 132.751094 
L 248.926625 131.784124 
L 249.238037 143.636948 
L 249.393743 146.073724 
L 249.705156 159.559774 
L 249.860862 159.959345 
L 250.016568 154.465862 
L 250.483687 126.44458 
L 250.639393 132.038406 
L 250.950806 149.99023 
L 251.573631 130.127311 
L 251.729337 133.392877 
L 251.885043 139.801887 
L 252.040749 136.272437 
L 252.352162 115.305407 
L 252.663574 130.66814 
L 252.81928 130.27914 
L 252.974987 125.210798 
L 253.130693 124.766914 
L 253.597812 130.658887 
L 253.753518 130.336618 
L 253.909224 132.626194 
L 254.376343 152.802152 
L 254.687755 142.990622 
L 254.843461 143.198396 
L 255.31058 155.558157 
L 255.621993 166.714462 
L 255.777699 167.033611 
L 255.933405 164.554753 
L 256.089111 164.349933 
L 256.400524 175.598872 
L 256.867642 153.067757 
L 257.179055 154.823037 
L 257.334761 152.46485 
L 257.490467 154.242866 
L 257.80188 167.662021 
L 257.957586 167.329501 
L 258.424705 146.338936 
L 258.736117 140.477195 
L 259.04753 131.797737 
L 259.358942 127.172054 
L 259.514648 128.502397 
L 259.826061 138.419191 
L 260.29318 160.079194 
L 260.448886 164.214749 
L 260.604592 163.300184 
L 260.916005 148.416493 
L 261.227417 153.32703 
L 261.383123 154.354969 
L 261.694536 150.864452 
L 261.850242 150.946164 
L 262.005948 145.284836 
L 262.161654 144.42295 
L 262.317361 146.991722 
L 262.473067 145.999836 
L 262.628773 143.462381 
L 262.784479 142.821391 
L 263.095892 151.107856 
L 263.56301 144.48342 
L 263.874423 133.78769 
L 264.030129 130.348165 
L 264.185835 129.827161 
L 264.341542 130.751639 
L 264.497248 128.834962 
L 264.964367 118.461822 
L 265.275779 119.254193 
L 265.431485 116.648377 
L 265.898604 105.057787 
L 266.677135 127.762529 
L 266.832841 126.418542 
L 266.988548 123.654198 
L 267.144254 115.02058 
L 267.455666 92.834205 
L 267.611373 94.774088 
L 267.922785 109.230919 
L 268.078491 110.62008 
L 268.389904 120.267075 
L 268.54561 119.850812 
L 268.857022 124.539165 
L 269.168435 115.572373 
L 269.324141 115.766145 
L 269.479847 113.06956 
L 269.79126 115.24498 
L 269.946966 119.282598 
L 270.569791 153.656167 
L 270.725497 153.138776 
L 271.504028 134.253901 
L 271.815441 141.309796 
L 272.282559 154.375467 
L 272.593972 161.187297 
L 272.749678 161.804587 
L 272.905384 157.849243 
L 273.061091 156.958527 
L 273.216797 159.451665 
L 273.528209 154.23293 
L 273.683916 154.962682 
L 273.839622 154.827941 
L 273.995328 155.385905 
L 274.151034 156.918227 
L 274.618153 140.212781 
L 274.773859 138.503487 
L 274.929565 139.926465 
L 275.240978 147.429064 
L 275.396684 146.179387 
L 275.55239 139.596714 
L 275.863803 110.912069 
L 276.175215 117.718963 
L 276.330922 117.838451 
L 276.486628 121.032733 
L 276.642334 121.182164 
L 277.109453 103.61874 
L 277.265159 103.847429 
L 277.576571 101.172687 
L 278.199396 135.833331 
L 278.355103 139.024813 
L 278.666515 137.849942 
L 278.977927 130.95444 
L 279.28934 125.39624 
L 279.445046 125.585283 
L 279.756459 132.420542 
L 280.379284 120.464025 
L 280.53499 121.284026 
L 280.690696 123.166214 
L 280.846402 123.170271 
L 281.469227 111.436141 
L 281.78064 99.454787 
L 282.247758 113.432173 
L 282.559171 119.821885 
L 282.714877 125.303533 
L 283.02629 109.173544 
L 283.181996 111.61204 
L 283.493408 119.927839 
L 283.649114 122.917004 
L 283.804821 129.422615 
L 283.960527 129.840882 
L 284.427646 115.664801 
L 284.583352 119.410743 
L 284.739058 118.498657 
L 284.894764 113.046008 
L 285.050471 111.868001 
L 285.517589 127.874575 
L 286.29612 115.724144 
L 286.607533 121.819889 
L 286.763239 118.919213 
L 287.074652 110.031701 
L 287.230358 114.682639 
L 287.54177 129.73002 
L 287.697476 130.435101 
L 288.476008 107.672914 
L 289.098833 94.260449 
L 289.254539 94.856221 
L 290.188776 126.539333 
L 290.500189 120.905336 
L 290.655895 115.09182 
L 290.967307 94.47852 
L 291.123014 91.03926 
L 291.27872 91.154853 
L 291.590132 89.958713 
L 291.745839 95.597932 
L 292.057251 112.648265 
L 292.212957 113.085631 
L 292.680076 105.965648 
L 292.835782 110.523698 
L 293.302901 139.71591 
L 293.458607 138.976182 
L 293.925726 132.415117 
L 294.237138 137.145181 
L 294.548551 131.71723 
L 294.704257 131.308855 
L 294.859963 131.899105 
L 295.171376 125.57688 
L 295.482788 119.75163 
L 295.794201 122.779457 
L 296.105613 118.263904 
L 296.261319 121.53801 
L 296.417025 121.165142 
L 296.572732 121.64126 
L 296.728438 123.888341 
L 297.195557 104.070046 
L 297.506969 110.79956 
L 297.662675 110.612269 
L 297.818382 111.935641 
L 298.2855 123.593121 
L 298.441206 122.298443 
L 298.752619 106.250236 
L 298.908325 108.126357 
L 299.375444 122.366569 
L 299.842563 135.481465 
L 300.153975 134.747795 
L 300.309681 134.873467 
L 300.465388 134.368266 
L 300.7768 141.595288 
L 301.243919 152.207994 
L 301.399625 151.502568 
L 301.555331 150.154139 
L 301.711037 150.082965 
L 301.866744 150.286173 
L 302.178156 146.992479 
L 302.333862 146.487393 
L 302.800981 129.492762 
L 302.956687 125.916013 
L 303.2681 112.155399 
L 303.579512 107.418812 
L 304.202337 98.311809 
L 304.980868 73.229653 
L 305.136574 77.160028 
L 305.603693 99.372353 
L 305.915106 106.472957 
L 306.070812 110.154956 
L 306.382224 119.986482 
L 306.693637 115.650995 
L 307.005049 105.432475 
L 307.316462 115.555834 
L 307.472168 117.03707 
L 307.627874 115.577903 
L 307.78358 115.395289 
L 307.939287 119.283238 
L 308.094993 120.212273 
L 308.250699 123.497559 
L 308.406405 130.011766 
L 308.717818 130.797335 
L 308.873524 132.546248 
L 309.02923 136.397474 
L 309.340643 147.16562 
L 309.652055 151.126841 
L 309.807761 149.104614 
L 309.963468 151.987572 
L 310.27488 161.640253 
L 310.430586 159.369093 
L 310.741999 151.743603 
L 311.053411 148.653288 
L 311.209118 148.58068 
L 311.676236 135.450125 
L 311.987649 129.503087 
L 312.454767 144.363923 
L 312.610474 136.655822 
L 313.077592 101.742099 
L 313.389005 88.381846 
L 313.544711 86.042221 
L 313.856123 91.573708 
L 314.323242 74.568192 
L 314.634655 94.065711 
L 314.790361 96.704078 
L 315.413186 121.231303 
L 315.568892 121.597077 
L 315.724598 124.991776 
L 315.880305 134.173994 
L 316.036011 135.595394 
L 316.191717 135.650972 
L 316.503129 147.066565 
L 316.658836 147.610127 
L 316.814542 145.781495 
L 316.970248 146.283913 
L 317.125954 147.693398 
L 317.281661 145.48665 
L 317.437367 141.525211 
L 317.593073 142.270064 
L 317.904486 148.034857 
L 318.060192 148.618025 
L 318.371604 143.392788 
L 318.683017 148.960596 
L 319.150135 143.598372 
L 319.461548 150.12975 
L 319.928667 125.929303 
L 320.240079 108.789999 
L 320.395785 110.679637 
L 320.707198 132.590616 
L 320.862904 133.093337 
L 321.01861 131.863519 
L 321.174316 131.960037 
L 321.485729 128.106463 
L 321.641435 130.165064 
L 321.797141 129.183861 
L 321.952848 131.09045 
L 322.26426 139.389731 
L 322.419966 137.225821 
L 322.731379 126.52918 
L 322.887085 128.722427 
L 323.354204 150.634023 
L 323.50991 147.30356 
L 323.665616 137.368829 
L 323.821322 135.621158 
L 324.132735 144.89447 
L 324.288441 147.347015 
L 324.599854 157.187798 
L 324.75556 158.764764 
L 324.911266 158.220532 
L 325.066972 154.081616 
L 325.222678 154.454924 
L 325.378385 158.091403 
L 325.534091 157.899503 
L 325.689797 158.117794 
L 325.845503 159.676875 
L 326.00121 157.786534 
L 326.468328 123.861854 
L 326.624035 121.370194 
L 326.779741 123.939439 
L 327.246859 147.037971 
L 327.402566 146.510526 
L 327.558272 147.247966 
L 327.869684 153.821421 
L 328.025391 156.115924 
L 328.181097 160.934226 
L 328.336803 162.233636 
L 328.492509 164.577127 
L 328.648216 164.470174 
L 328.803922 165.080712 
L 329.27104 175.582073 
L 329.582453 183.011231 
L 330.049572 168.13207 
L 330.205278 166.676204 
L 330.360984 166.481518 
L 330.51669 167.595556 
L 330.828103 166.549806 
L 330.983809 167.159937 
L 331.295222 177.203977 
L 331.450928 183.278228 
L 331.606634 181.959275 
L 331.76234 178.46042 
L 331.918046 179.195856 
L 332.229459 171.535314 
L 332.385165 170.109725 
L 332.540871 166.792685 
L 332.696578 167.428528 
L 333.319403 155.839804 
L 333.630815 154.065671 
L 333.942227 143.176512 
L 334.097934 143.207303 
L 334.565052 100.902343 
L 334.720759 97.376911 
L 334.876465 98.347401 
L 335.187877 105.357897 
L 335.343584 105.970107 
L 335.654996 96.692817 
L 335.810702 98.401472 
L 336.277821 117.561031 
L 336.433527 117.797962 
L 336.900646 142.330294 
L 337.056352 143.464263 
L 337.523471 157.131963 
L 337.834883 146.347267 
L 337.990589 148.163604 
L 338.302002 163.207688 
L 338.457708 165.509889 
L 338.769121 163.466777 
L 338.924827 161.837746 
L 339.080533 163.501899 
L 339.547652 178.29903 
L 339.859064 183.320588 
L 340.014771 181.893971 
L 340.170477 179.396985 
L 340.326183 175.05718 
L 340.637595 160.084718 
L 340.949008 151.90164 
L 341.26042 150.942798 
L 341.416127 152.452086 
L 341.571833 144.871074 
L 341.883245 118.633004 
L 342.194658 113.410388 
L 342.661776 111.659208 
L 342.817483 110.524791 
L 342.973189 106.555989 
L 343.128895 106.423772 
L 343.596014 125.810984 
L 343.907426 135.992374 
L 344.530251 149.457305 
L 344.841664 158.94418 
L 344.99737 161.072269 
L 345.153076 166.60184 
L 345.308782 167.380579 
L 345.775901 158.507625 
L 345.931607 154.101372 
L 346.087314 153.272424 
L 346.24302 150.216051 
L 346.398726 153.265989 
L 346.554432 158.98128 
L 346.710138 160.433695 
L 346.865845 166.280954 
L 347.021551 166.185419 
L 347.332963 137.647904 
L 347.48867 134.15958 
L 347.800082 138.354274 
L 348.111495 126.566571 
L 348.267201 128.517158 
L 348.422907 128.002991 
L 348.578613 129.001032 
L 348.890026 132.382183 
L 349.201438 120.463258 
L 349.824263 144.377934 
L 350.291382 133.650673 
L 350.758501 142.336543 
L 351.069913 152.217973 
L 351.692738 127.847728 
L 352.00415 135.81268 
L 352.159857 135.001816 
L 352.471269 129.561397 
L 352.782682 119.028009 
L 353.094094 114.318689 
L 353.561213 101.999378 
L 353.716919 103.001218 
L 354.806863 135.118577 
L 354.962569 134.39072 
L 355.429688 119.54009 
L 355.7411 125.992446 
L 355.896806 123.202487 
L 356.052512 123.429899 
L 356.363925 130.471931 
L 356.675337 122.310677 
L 356.831044 125.25196 
L 357.142456 137.442733 
L 357.609575 123.813138 
L 357.765281 123.887326 
L 358.2324 141.627113 
L 358.388106 138.090404 
L 358.543812 137.898481 
L 358.699518 136.464317 
L 358.855225 133.264443 
L 359.010931 132.490552 
L 359.633756 144.135083 
L 359.789462 143.122985 
L 360.100874 134.990239 
L 360.412287 124.046695 
L 360.723699 129.744514 
L 361.035112 119.970701 
L 361.190818 120.09118 
L 361.346524 120.973747 
L 361.502231 119.370479 
L 361.813643 113.470868 
L 362.125055 121.799958 
L 362.280762 121.796129 
L 362.436468 118.646145 
L 362.74788 98.338726 
L 362.903587 100.578907 
L 363.370705 118.820298 
L 363.682118 129.355024 
L 363.837824 128.850671 
L 364.304943 115.810215 
L 364.616355 115.524096 
L 364.772061 113.716179 
L 365.550593 130.84113 
L 365.862005 129.859424 
L 366.173418 126.751174 
L 366.329124 125.830758 
L 366.640536 112.281174 
L 366.796242 110.492561 
L 366.951949 106.399203 
L 367.263361 91.252506 
L 367.419067 92.175926 
L 367.886186 121.357892 
L 368.041892 123.938004 
L 368.197599 123.467983 
L 368.353305 121.366865 
L 368.820423 106.16793 
L 369.131836 89.204206 
L 369.287542 88.393254 
L 369.443248 84.66614 
L 369.754661 70.942432 
L 370.066073 76.973525 
L 370.377486 75.531395 
L 370.533192 77.76091 
L 370.844604 86.901317 
L 371.000311 85.356067 
L 371.156017 85.493452 
L 371.467429 88.39346 
L 371.778842 101.667588 
L 372.090254 97.100794 
L 372.245961 96.250073 
L 372.713079 89.527357 
L 373.024492 103.916143 
L 373.180198 103.286078 
L 373.335904 102.209169 
L 373.647317 106.282242 
L 373.958729 94.48913 
L 374.114435 96.069701 
L 374.425848 104.115717 
L 374.73726 114.643574 
L 374.892967 111.820764 
L 375.360085 85.516453 
L 375.515791 87.841936 
L 375.671498 87.51786 
L 375.98291 76.426569 
L 376.138616 70.202209 
L 376.294323 70.277974 
L 376.450029 73.92629 
L 376.761441 86.959198 
L 376.917148 85.594433 
L 377.072854 77.591247 
L 377.384266 46.314649 
L 377.695679 38.275543 
L 377.851385 44.914789 
L 378.318504 77.255074 
L 378.629916 81.854128 
L 378.785622 80.585139 
L 378.941329 76.870416 
L 379.097035 80.941726 
L 379.408447 101.410568 
L 379.564153 100.998759 
L 379.71986 99.449984 
L 379.875566 100.73226 
L 380.186978 106.395546 
L 380.498391 114.48929 
L 380.809803 113.854787 
L 381.121216 107.373196 
L 381.588335 95.123962 
L 381.744041 97.702392 
L 382.055453 106.300134 
L 382.211159 108.205947 
L 382.366866 102.890158 
L 382.678278 87.386513 
L 382.833984 88.745497 
L 382.989691 84.712359 
L 383.301103 74.069237 
L 383.923928 62.338711 
L 384.079634 61.033146 
L 384.23534 63.457632 
L 384.546753 73.540149 
L 384.702459 72.480492 
L 384.858165 68.702831 
L 385.013872 71.65414 
L 385.636697 95.311493 
L 385.792403 92.412215 
L 385.948109 86.11458 
L 386.103815 84.886881 
L 386.415228 88.840148 
L 386.72664 84.609048 
L 387.193759 100.933451 
L 387.349465 98.392953 
L 387.505171 98.417831 
L 387.660878 101.907614 
L 387.816584 97.858026 
L 388.283703 78.812458 
L 388.595115 87.145676 
L 389.062234 102.533182 
L 389.21794 97.820049 
L 389.529352 82.927934 
L 389.996471 70.592955 
L 390.152177 71.250357 
L 390.307884 76.229131 
L 390.46359 76.794815 
L 390.775002 66.565767 
L 390.930708 60.413861 
L 391.086415 59.02468 
L 391.397827 51.504305 
L 392.332065 79.095604 
L 392.487771 72.955476 
L 392.643477 72.113703 
L 392.954889 81.993422 
L 393.733421 116.870698 
L 393.889127 114.867672 
L 394.044833 107.636913 
L 394.200539 106.74242 
L 394.511952 109.81375 
L 394.667658 106.206583 
L 394.823364 106.562846 
L 394.97907 107.606235 
L 396.22472 59.24991 
L 396.536133 56.006645 
L 397.003252 27.769161 
L 397.158958 26.330002 
L 397.47037 32.170586 
L 397.781783 21.045455 
L 398.093195 29.831382 
L 398.404608 43.573352 
L 398.71602 46.187867 
L 398.871726 50.177343 
L 399.183139 70.769037 
L 399.494551 87.650015 
L 399.650257 88.240623 
L 400.273082 106.222273 
L 400.428789 104.742708 
L 400.895907 96.533959 
L 401.051614 97.230667 
L 401.20732 91.579855 
L 401.363026 90.248483 
L 401.674438 102.568481 
L 401.830145 104.432434 
L 402.141557 96.62519 
L 402.297263 96.164973 
L 402.45297 98.161767 
L 402.764382 105.495551 
L 403.231501 87.233957 
L 403.387207 88.474363 
L 403.542913 87.698794 
L 403.854326 82.440518 
L 404.165738 91.603491 
L 404.321444 91.253603 
L 404.477151 86.624234 
L 404.632857 76.922523 
L 404.788563 76.919192 
L 405.099976 94.438751 
L 405.255682 92.353766 
L 405.255682 92.353766 
" style="fill:none;stroke:#000000;stroke-linecap:square;stroke-width:1.5;"/>
   </g>
   <g id="line2d_12">
    <path clip-path="url(#p78a408a0b3)" d="M 94.466042 147.435063 
L 94.621748 140.295304 
L 94.777455 138.720326 
L 94.933161 140.326756 
L 95.088867 140.756368 
L 95.555986 134.231859 
L 96.178811 148.852285 
L 96.801636 131.343496 
L 96.957342 130.576506 
L 97.424461 114.720957 
L 97.580167 115.588709 
L 97.735873 122.611786 
L 97.891579 123.599543 
L 98.047286 117.860668 
L 98.358698 95.544636 
L 98.825817 85.476777 
L 98.981523 84.799923 
L 99.137229 86.690226 
L 99.292935 92.995356 
L 99.448642 94.770387 
L 99.760054 85.708316 
L 99.91576 86.032197 
L 100.071467 88.10353 
L 100.382879 96.54145 
L 100.694292 90.940818 
L 100.849998 92.487446 
L 101.472823 116.376529 
L 101.628529 119.007051 
L 101.784235 119.436162 
L 101.939941 118.454849 
L 102.095648 118.624075 
L 102.40706 132.908062 
L 102.874179 129.038848 
L 103.341297 143.646941 
L 103.65271 138.776462 
L 103.808416 138.34258 
L 103.964122 137.435241 
L 104.275535 129.861809 
L 104.431241 131.248048 
L 104.742654 137.256791 
L 104.89836 137.150768 
L 105.054066 135.460889 
L 105.676891 116.344694 
L 105.988303 119.820173 
L 106.14401 112.791242 
L 106.455422 90.214302 
L 106.766835 99.473447 
L 106.922541 97.502384 
L 107.233953 78.102765 
L 107.545366 65.827925 
L 107.701072 67.14739 
L 107.856778 72.032845 
L 108.012484 71.596109 
L 108.323897 60.799704 
L 108.479603 59.610298 
L 108.791016 65.331667 
L 109.258134 94.97534 
L 109.569547 100.665404 
L 109.725253 96.195459 
L 109.880959 98.980251 
L 110.348078 138.166994 
L 110.503784 141.184489 
L 110.815197 134.684419 
L 111.282315 143.010339 
L 111.90514 158.296524 
L 112.060847 159.162646 
L 112.527965 144.43129 
L 112.683671 144.633676 
L 112.995084 155.333944 
L 113.15079 153.29553 
L 113.462203 140.001905 
L 113.617909 139.198571 
L 113.929321 146.076299 
L 114.240734 154.938973 
L 114.552146 151.555919 
L 114.863559 143.690545 
L 115.019265 144.646738 
L 115.174971 142.785722 
L 115.797796 124.441731 
L 116.264915 105.367842 
L 117.043446 75.707685 
L 117.354858 61.913712 
L 117.510565 61.385809 
L 117.977683 39.845233 
L 118.13339 39.960357 
L 118.289096 40.487821 
L 118.444802 40.168508 
L 118.600508 36.795191 
L 118.756214 38.615444 
L 119.534746 68.932009 
L 119.846158 82.811018 
L 120.001864 83.601864 
L 120.157571 85.430688 
L 120.468983 108.874633 
L 120.780396 133.941433 
L 120.936102 136.838152 
L 121.40322 128.105213 
L 121.558927 124.579377 
L 121.714633 129.116568 
L 122.026045 144.534078 
L 122.181752 147.372553 
L 122.337458 147.645097 
L 123.115989 137.803675 
L 123.427401 140.897852 
L 123.583108 145.042567 
L 123.738814 145.884148 
L 124.050226 134.685794 
L 124.361639 129.211064 
L 124.828758 102.264743 
L 124.984464 105.100041 
L 125.14017 105.628514 
L 125.607289 97.9147 
L 125.918701 102.624922 
L 126.074407 99.740945 
L 126.230114 100.734083 
L 126.38582 103.13747 
L 126.541526 102.870522 
L 126.697232 102.210312 
L 127.008645 108.483527 
L 127.320057 119.743968 
L 127.63147 134.073816 
L 127.787176 135.169 
L 127.942882 133.127162 
L 128.098588 132.669383 
L 128.410001 141.053488 
L 128.721413 150.09351 
L 128.87712 149.237849 
L 129.188532 143.839479 
L 129.344238 142.355744 
L 129.655651 133.968883 
L 129.811357 133.884499 
L 129.967063 131.88948 
L 130.122769 131.867235 
L 130.278476 132.599757 
L 130.434182 131.563442 
L 130.589888 128.224827 
L 130.745594 122.20055 
L 130.901301 121.652844 
L 131.057007 123.286626 
L 131.212713 121.605548 
L 131.524126 115.548693 
L 131.679832 118.334165 
L 132.14695 143.167886 
L 132.302657 142.349048 
L 132.769775 128.726229 
L 133.236894 156.233125 
L 133.3926 156.139885 
L 133.548307 154.919169 
L 133.859719 146.347457 
L 134.015425 147.610446 
L 134.171131 147.881975 
L 134.326838 146.393031 
L 134.482544 142.428841 
L 134.793956 130.545819 
L 134.949663 128.258202 
L 135.261075 120.877167 
L 135.572488 116.930738 
L 135.728194 120.635687 
L 135.8839 119.440869 
L 136.039606 113.828942 
L 136.195312 112.982673 
L 136.351019 113.163927 
L 136.506725 111.852174 
L 136.662431 111.711223 
L 136.818137 109.686022 
L 137.12955 99.238626 
L 137.285256 100.136441 
L 137.596669 115.649569 
L 137.908081 116.883866 
L 138.063787 115.393867 
L 138.219494 115.366358 
L 138.530906 119.891809 
L 138.686612 119.207659 
L 138.842318 121.220605 
L 139.153731 134.867778 
L 139.309437 143.292746 
L 139.465143 143.680628 
L 139.62085 138.853069 
L 139.776556 140.456679 
L 140.399381 167.944851 
L 140.710793 163.478853 
L 141.333618 172.849802 
L 141.489324 173.0444 
L 141.800737 185.562533 
L 142.112149 184.919871 
L 142.579268 202.218154 
L 143.046387 223.03326 
L 143.202093 223.020806 
L 143.357799 224.828996 
L 143.513505 224.789813 
L 143.669212 225.954545 
L 143.824918 225.418645 
L 144.292037 214.689014 
L 144.447743 214.67153 
L 144.603449 214.168315 
L 144.759155 214.276852 
L 145.070568 214.066529 
L 145.226274 215.476169 
L 145.537686 215.711372 
L 145.849099 206.021377 
L 146.004805 206.328908 
L 146.160511 207.672635 
L 146.783336 194.286858 
L 146.939043 194.601038 
L 147.250455 203.114162 
L 147.561867 207.211585 
L 147.717574 206.495579 
L 148.028986 195.391647 
L 148.184692 192.392001 
L 148.496105 185.121688 
L 148.651811 184.391091 
L 148.963224 177.564539 
L 149.586048 160.497254 
L 149.897461 161.829247 
L 150.053167 157.869267 
L 150.520286 134.518355 
L 150.675992 131.241025 
L 150.831698 132.455667 
L 151.143111 126.839775 
L 151.298817 130.573915 
L 152.233054 175.299024 
L 152.388761 180.656054 
L 152.700173 168.718134 
L 152.855879 170.388809 
L 153.322998 182.033467 
L 153.634411 188.508102 
L 153.790117 191.013704 
L 153.945823 188.24754 
L 154.257235 175.409264 
L 154.412942 176.098441 
L 154.568648 177.739744 
L 155.035767 169.326284 
L 155.814298 141.953839 
L 156.12571 150.817118 
L 156.281416 151.819946 
L 156.437123 151.660223 
L 156.748535 146.882677 
L 156.904241 149.678715 
L 157.37136 175.633628 
L 157.527066 179.721168 
L 157.682773 173.310191 
M 303.2681 112.155399 
L 303.579512 107.418812 
L 304.202337 98.311809 
L 304.980868 73.229653 
L 305.136574 77.160028 
L 305.603693 99.372353 
L 305.915106 106.472957 
L 306.070812 110.154956 
L 306.382224 119.986482 
L 306.693637 115.650995 
L 307.005049 105.432475 
L 307.316462 115.555834 
L 307.472168 117.03707 
L 307.627874 115.577903 
L 307.78358 115.395289 
L 307.939287 119.283238 
L 308.094993 120.212273 
L 308.250699 123.497559 
L 308.406405 130.011766 
L 308.717818 130.797335 
L 308.873524 132.546248 
L 309.02923 136.397474 
L 309.340643 147.16562 
L 309.652055 151.126841 
L 309.807761 149.104614 
L 309.963468 151.987572 
L 310.27488 161.640253 
L 310.430586 159.369093 
L 310.741999 151.743603 
L 311.053411 148.653288 
L 311.209118 148.58068 
L 311.676236 135.450125 
L 311.987649 129.503087 
L 312.454767 144.363923 
L 312.610474 136.655822 
L 313.077592 101.742099 
L 313.389005 88.381846 
L 313.544711 86.042221 
L 313.856123 91.573708 
L 314.323242 74.568192 
L 314.634655 94.065711 
L 314.790361 96.704078 
L 315.413186 121.231303 
L 315.568892 121.597077 
L 315.724598 124.991776 
L 315.880305 134.173994 
L 316.036011 135.595394 
L 316.191717 135.650972 
L 316.503129 147.066565 
L 316.658836 147.610127 
L 316.814542 145.781495 
L 316.970248 146.283913 
L 317.125954 147.693398 
L 317.281661 145.48665 
L 317.437367 141.525211 
L 317.593073 142.270064 
L 317.904486 148.034857 
L 318.060192 148.618025 
L 318.371604 143.392788 
L 318.683017 148.960596 
L 319.150135 143.598372 
L 319.461548 150.12975 
L 319.928667 125.929303 
L 320.240079 108.789999 
L 320.395785 110.679637 
L 320.707198 132.590616 
L 320.862904 133.093337 
L 321.01861 131.863519 
L 321.174316 131.960037 
L 321.485729 128.106463 
L 321.641435 130.165064 
L 321.797141 129.183861 
L 321.952848 131.09045 
L 322.26426 139.389731 
L 322.419966 137.225821 
L 322.731379 126.52918 
L 322.887085 128.722427 
L 323.354204 150.634023 
L 323.50991 147.30356 
L 323.665616 137.368829 
L 323.821322 135.621158 
L 324.132735 144.89447 
L 324.288441 147.347015 
L 324.599854 157.187798 
L 324.75556 158.764764 
L 324.911266 158.220532 
L 325.066972 154.081616 
L 325.222678 154.454924 
L 325.378385 158.091403 
L 325.534091 157.899503 
L 325.689797 158.117794 
L 325.845503 159.676875 
L 326.00121 157.786534 
L 326.468328 123.861854 
L 326.624035 121.370194 
L 326.779741 123.939439 
L 327.246859 147.037971 
L 327.402566 146.510526 
L 327.558272 147.247966 
L 327.869684 153.821421 
L 328.025391 156.115924 
L 328.181097 160.934226 
L 328.336803 162.233636 
L 328.492509 164.577127 
L 328.648216 164.470174 
L 328.803922 165.080712 
L 329.27104 175.582073 
L 329.582453 183.011231 
L 330.049572 168.13207 
L 330.205278 166.676204 
L 330.360984 166.481518 
L 330.51669 167.595556 
L 330.828103 166.549806 
L 330.983809 167.159937 
L 331.295222 177.203977 
L 331.450928 183.278228 
L 331.606634 181.959275 
L 331.76234 178.46042 
L 331.918046 179.195856 
L 332.229459 171.535314 
L 332.385165 170.109725 
L 332.540871 166.792685 
L 332.696578 167.428528 
L 333.319403 155.839804 
L 333.630815 154.065671 
L 333.942227 143.176512 
L 334.097934 143.207303 
L 334.565052 100.902343 
L 334.720759 97.376911 
L 334.876465 98.347401 
L 335.187877 105.357897 
L 335.343584 105.970107 
L 335.654996 96.692817 
L 335.810702 98.401472 
L 336.277821 117.561031 
L 336.433527 117.797962 
L 336.900646 142.330294 
L 337.056352 143.464263 
L 337.523471 157.131963 
L 337.834883 146.347267 
L 337.990589 148.163604 
L 338.302002 163.207688 
L 338.457708 165.509889 
L 338.769121 163.466777 
L 338.924827 161.837746 
L 339.080533 163.501899 
L 339.547652 178.29903 
L 339.859064 183.320588 
L 340.014771 181.893971 
L 340.170477 179.396985 
L 340.326183 175.05718 
L 340.637595 160.084718 
L 340.949008 151.90164 
L 341.26042 150.942798 
L 341.416127 152.452086 
L 341.416127 152.452086 
" style="fill:none;stroke:#ff0000;stroke-linecap:square;stroke-width:1.5;"/>
   </g>
   <g id="patch_3">
    <path d="M 70.425 236.2 
L 70.425 10.8 
" style="fill:none;stroke:#000000;stroke-linecap:square;stroke-linejoin:miter;stroke-width:0.8;"/>
   </g>
   <g id="patch_4">
    <path d="M 421.2 236.2 
L 421.2 10.8 
" style="fill:none;stroke:#000000;stroke-linecap:square;stroke-linejoin:miter;stroke-width:0.8;"/>
   </g>
   <g id="patch_5">
    <path d="M 70.425 236.2 
L 421.2 236.2 
" style="fill:none;stroke:#000000;stroke-linecap:square;stroke-linejoin:miter;stroke-width:0.8;"/>
   </g>
   <g id="patch_6">
    <path d="M 70.425 10.8 
L 421.2 10.8 
" style="fill:none;stroke:#000000;stroke-linecap:square;stroke-linejoin:miter;stroke-width:0.8;"/>
   </g>
   <g id="legend_1">
    <g id="patch_7">
     <path d="M 314.161875 230.2 
L 412.8 230.2 
Q 415.2 230.2 415.2 227.8 
L 415.2 193.7725 
Q 415.2 191.3725 412.8 191.3725 
L 314.161875 191.3725 
Q 311.761875 191.3725 311.761875 193.7725 
L 311.761875 227.8 
Q 311.761875 230.2 314.161875 230.2 
z
" style="fill:#ffffff;opacity:0.8;stroke:#cccccc;stroke-linejoin:miter;"/>
    </g>
    <g id="line2d_13">
     <path d="M 316.561875 201.090625 
L 340.561875 201.090625 
" style="fill:none;stroke:#000000;stroke-linecap:square;stroke-width:1.5;"/>
    </g>
    <g id="line2d_14"/>
    <g id="text_13">
     <!-- Raw data -->
     <g transform="translate(350.161875 205.290625)scale(0.12 -0.12)">
      <defs>
       <path d="M 44.390625 34.1875 
Q 47.5625 33.109375 50.5625 29.59375 
Q 53.5625 26.078125 56.59375 19.921875 
L 66.609375 0 
L 56 0 
L 46.6875 18.703125 
Q 43.0625 26.03125 39.671875 28.421875 
Q 36.28125 30.8125 30.421875 30.8125 
L 19.671875 30.8125 
L 19.671875 0 
L 9.8125 0 
L 9.8125 72.90625 
L 32.078125 72.90625 
Q 44.578125 72.90625 50.734375 67.671875 
Q 56.890625 62.453125 56.890625 51.90625 
Q 56.890625 45.015625 53.6875 40.46875 
Q 50.484375 35.9375 44.390625 34.1875 
z
M 19.671875 64.796875 
L 19.671875 38.921875 
L 32.078125 38.921875 
Q 39.203125 38.921875 42.84375 42.21875 
Q 46.484375 45.515625 46.484375 51.90625 
Q 46.484375 58.296875 42.84375 61.546875 
Q 39.203125 64.796875 32.078125 64.796875 
z
" id="DejaVuSans-82"/>
       <path d="M 4.203125 54.6875 
L 13.1875 54.6875 
L 24.421875 12.015625 
L 35.59375 54.6875 
L 46.1875 54.6875 
L 57.421875 12.015625 
L 68.609375 54.6875 
L 77.59375 54.6875 
L 63.28125 0 
L 52.6875 0 
L 40.921875 44.828125 
L 29.109375 0 
L 18.5 0 
z
" id="DejaVuSans-119"/>
       <path d="M 45.40625 46.390625 
L 45.40625 75.984375 
L 54.390625 75.984375 
L 54.390625 0 
L 45.40625 0 
L 45.40625 8.203125 
Q 42.578125 3.328125 38.25 0.953125 
Q 33.9375 -1.421875 27.875 -1.421875 
Q 17.96875 -1.421875 11.734375 6.484375 
Q 5.515625 14.40625 5.515625 27.296875 
Q 5.515625 40.1875 11.734375 48.09375 
Q 17.96875 56 27.875 56 
Q 33.9375 56 38.25 53.625 
Q 42.578125 51.265625 45.40625 46.390625 
z
M 14.796875 27.296875 
Q 14.796875 17.390625 18.875 11.75 
Q 22.953125 6.109375 30.078125 6.109375 
Q 37.203125 6.109375 41.296875 11.75 
Q 45.40625 17.390625 45.40625 27.296875 
Q 45.40625 37.203125 41.296875 42.84375 
Q 37.203125 48.484375 30.078125 48.484375 
Q 22.953125 48.484375 18.875 42.84375 
Q 14.796875 37.203125 14.796875 27.296875 
z
" id="DejaVuSans-100"/>
      </defs>
      <use xlink:href="#DejaVuSans-82"/>
      <use x="67.232422" xlink:href="#DejaVuSans-97"/>
      <use x="128.511719" xlink:href="#DejaVuSans-119"/>
      <use x="210.298828" xlink:href="#DejaVuSans-32"/>
      <use x="242.085938" xlink:href="#DejaVuSans-100"/>
      <use x="305.5625" xlink:href="#DejaVuSans-97"/>
      <use x="366.841797" xlink:href="#DejaVuSans-116"/>
      <use x="406.050781" xlink:href="#DejaVuSans-97"/>
     </g>
    </g>
    <g id="line2d_15">
     <path d="M 316.561875 218.704375 
L 340.561875 218.704375 
" style="fill:none;stroke:#ff0000;stroke-linecap:square;stroke-width:1.5;"/>
    </g>
    <g id="line2d_16"/>
    <g id="text_14">
     <!-- BOSC 8Hz -->
     <g transform="translate(350.161875 222.904375)scale(0.12 -0.12)">
      <defs>
       <path d="M 19.671875 34.8125 
L 19.671875 8.109375 
L 35.5 8.109375 
Q 43.453125 8.109375 47.28125 11.40625 
Q 51.125 14.703125 51.125 21.484375 
Q 51.125 28.328125 47.28125 31.5625 
Q 43.453125 34.8125 35.5 34.8125 
z
M 19.671875 64.796875 
L 19.671875 42.828125 
L 34.28125 42.828125 
Q 41.5 42.828125 45.03125 45.53125 
Q 48.578125 48.25 48.578125 53.8125 
Q 48.578125 59.328125 45.03125 62.0625 
Q 41.5 64.796875 34.28125 64.796875 
z
M 9.8125 72.90625 
L 35.015625 72.90625 
Q 46.296875 72.90625 52.390625 68.21875 
Q 58.5 63.53125 58.5 54.890625 
Q 58.5 48.1875 55.375 44.234375 
Q 52.25 40.28125 46.1875 39.3125 
Q 53.46875 37.75 57.5 32.78125 
Q 61.53125 27.828125 61.53125 20.40625 
Q 61.53125 10.640625 54.890625 5.3125 
Q 48.25 0 35.984375 0 
L 9.8125 0 
z
" id="DejaVuSans-66"/>
       <path d="M 39.40625 66.21875 
Q 28.65625 66.21875 22.328125 58.203125 
Q 16.015625 50.203125 16.015625 36.375 
Q 16.015625 22.609375 22.328125 14.59375 
Q 28.65625 6.59375 39.40625 6.59375 
Q 50.140625 6.59375 56.421875 14.59375 
Q 62.703125 22.609375 62.703125 36.375 
Q 62.703125 50.203125 56.421875 58.203125 
Q 50.140625 66.21875 39.40625 66.21875 
z
M 39.40625 74.21875 
Q 54.734375 74.21875 63.90625 63.9375 
Q 73.09375 53.65625 73.09375 36.375 
Q 73.09375 19.140625 63.90625 8.859375 
Q 54.734375 -1.421875 39.40625 -1.421875 
Q 24.03125 -1.421875 14.8125 8.828125 
Q 5.609375 19.09375 5.609375 36.375 
Q 5.609375 53.65625 14.8125 63.9375 
Q 24.03125 74.21875 39.40625 74.21875 
z
" id="DejaVuSans-79"/>
       <path d="M 53.515625 70.515625 
L 53.515625 60.890625 
Q 47.90625 63.578125 42.921875 64.890625 
Q 37.9375 66.21875 33.296875 66.21875 
Q 25.25 66.21875 20.875 63.09375 
Q 16.5 59.96875 16.5 54.203125 
Q 16.5 49.359375 19.40625 46.890625 
Q 22.3125 44.4375 30.421875 42.921875 
L 36.375 41.703125 
Q 47.40625 39.59375 52.65625 34.296875 
Q 57.90625 29 57.90625 20.125 
Q 57.90625 9.515625 50.796875 4.046875 
Q 43.703125 -1.421875 29.984375 -1.421875 
Q 24.8125 -1.421875 18.96875 -0.25 
Q 13.140625 0.921875 6.890625 3.21875 
L 6.890625 13.375 
Q 12.890625 10.015625 18.65625 8.296875 
Q 24.421875 6.59375 29.984375 6.59375 
Q 38.421875 6.59375 43.015625 9.90625 
Q 47.609375 13.234375 47.609375 19.390625 
Q 47.609375 24.75 44.3125 27.78125 
Q 41.015625 30.8125 33.5 32.328125 
L 27.484375 33.5 
Q 16.453125 35.6875 11.515625 40.375 
Q 6.59375 45.0625 6.59375 53.421875 
Q 6.59375 63.09375 13.40625 68.65625 
Q 20.21875 74.21875 32.171875 74.21875 
Q 37.3125 74.21875 42.625 73.28125 
Q 47.953125 72.359375 53.515625 70.515625 
z
" id="DejaVuSans-83"/>
       <path d="M 64.40625 67.28125 
L 64.40625 56.890625 
Q 59.421875 61.53125 53.78125 63.8125 
Q 48.140625 66.109375 41.796875 66.109375 
Q 29.296875 66.109375 22.65625 58.46875 
Q 16.015625 50.828125 16.015625 36.375 
Q 16.015625 21.96875 22.65625 14.328125 
Q 29.296875 6.6875 41.796875 6.6875 
Q 48.140625 6.6875 53.78125 8.984375 
Q 59.421875 11.28125 64.40625 15.921875 
L 64.40625 5.609375 
Q 59.234375 2.09375 53.4375 0.328125 
Q 47.65625 -1.421875 41.21875 -1.421875 
Q 24.65625 -1.421875 15.125 8.703125 
Q 5.609375 18.84375 5.609375 36.375 
Q 5.609375 53.953125 15.125 64.078125 
Q 24.65625 74.21875 41.21875 74.21875 
Q 47.75 74.21875 53.53125 72.484375 
Q 59.328125 70.75 64.40625 67.28125 
z
" id="DejaVuSans-67"/>
       <path d="M 31.78125 34.625 
Q 24.75 34.625 20.71875 30.859375 
Q 16.703125 27.09375 16.703125 20.515625 
Q 16.703125 13.921875 20.71875 10.15625 
Q 24.75 6.390625 31.78125 6.390625 
Q 38.8125 6.390625 42.859375 10.171875 
Q 46.921875 13.96875 46.921875 20.515625 
Q 46.921875 27.09375 42.890625 30.859375 
Q 38.875 34.625 31.78125 34.625 
z
M 21.921875 38.8125 
Q 15.578125 40.375 12.03125 44.71875 
Q 8.5 49.078125 8.5 55.328125 
Q 8.5 64.0625 14.71875 69.140625 
Q 20.953125 74.21875 31.78125 74.21875 
Q 42.671875 74.21875 48.875 69.140625 
Q 55.078125 64.0625 55.078125 55.328125 
Q 55.078125 49.078125 51.53125 44.71875 
Q 48 40.375 41.703125 38.8125 
Q 48.828125 37.15625 52.796875 32.3125 
Q 56.78125 27.484375 56.78125 20.515625 
Q 56.78125 9.90625 50.3125 4.234375 
Q 43.84375 -1.421875 31.78125 -1.421875 
Q 19.734375 -1.421875 13.25 4.234375 
Q 6.78125 9.90625 6.78125 20.515625 
Q 6.78125 27.484375 10.78125 32.3125 
Q 14.796875 37.15625 21.921875 38.8125 
z
M 18.3125 54.390625 
Q 18.3125 48.734375 21.84375 45.5625 
Q 25.390625 42.390625 31.78125 42.390625 
Q 38.140625 42.390625 41.71875 45.5625 
Q 45.3125 48.734375 45.3125 54.390625 
Q 45.3125 60.0625 41.71875 63.234375 
Q 38.140625 66.40625 31.78125 66.40625 
Q 25.390625 66.40625 21.84375 63.234375 
Q 18.3125 60.0625 18.3125 54.390625 
z
" id="DejaVuSans-56"/>
       <path d="M 9.8125 72.90625 
L 19.671875 72.90625 
L 19.671875 43.015625 
L 55.515625 43.015625 
L 55.515625 72.90625 
L 65.375 72.90625 
L 65.375 0 
L 55.515625 0 
L 55.515625 34.71875 
L 19.671875 34.71875 
L 19.671875 0 
L 9.8125 0 
z
" id="DejaVuSans-72"/>
       <path d="M 5.515625 54.6875 
L 48.1875 54.6875 
L 48.1875 46.484375 
L 14.40625 7.171875 
L 48.1875 7.171875 
L 48.1875 0 
L 4.296875 0 
L 4.296875 8.203125 
L 38.09375 47.515625 
L 5.515625 47.515625 
z
" id="DejaVuSans-122"/>
      </defs>
      <use xlink:href="#DejaVuSans-66"/>
      <use x="66.853516" xlink:href="#DejaVuSans-79"/>
      <use x="145.564453" xlink:href="#DejaVuSans-83"/>
      <use x="209.041016" xlink:href="#DejaVuSans-67"/>
      <use x="278.865234" xlink:href="#DejaVuSans-32"/>
      <use x="310.652344" xlink:href="#DejaVuSans-56"/>
      <use x="374.275391" xlink:href="#DejaVuSans-72"/>
      <use x="449.470703" xlink:href="#DejaVuSans-122"/>
     </g>
    </g>
   </g>
  </g>
 </g>
 <defs>
  <clipPath id="p78a408a0b3">
   <rect height="225.4" width="350.775" x="70.425" y="10.8"/>
  </clipPath>
 </defs>
</svg>
